HIERARCHY
ROOT RootJoint
{
    OFFSET   0.000000   0.000000   0.000000
    CHANNELS 6 Xposition Yposition Zposition Xrotation Yrotation Zrotation
    JOINT lHip
    {
        OFFSET   0.100000  -0.051395   0.000000
        CHANNELS 3 Xrotation Yrotation Zrotation
        JOINT lKnee
        {
            OFFSET   0.000000  -0.410000   0.000000
            CHANNELS 3 Xrotation Yrotation Zrotation
            JOINT lAnkle
            {
                OFFSET   0.000000  -0.390000   0.000000
                CHANNELS 3 Xrotation Yrotation Zrotation
                JOINT lToeJoint
                {
                    OFFSET   0.000000  -0.050000   0.130000
                    CHANNELS 3 Xrotation Yrotation Zrotation
                    End Site
                    {
                        OFFSET   0.010000   0.002000   0.060000
                    }
                }
            }
        }
    }
    JOINT rHip
    {
        OFFSET  -0.100000  -0.051395   0.000000
        CHANNELS 3 Xrotation Yrotation Zrotation
        JOINT rKnee
        {
            OFFSET   0.000000  -0.410000   0.000000
            CHANNELS 3 Xrotation Yrotation Zrotation
            JOINT rAnkle
            {
                OFFSET   0.000000  -0.390000   0.000000
                CHANNELS 3 Xrotation Yrotation Zrotation
                JOINT rToeJoint
                {
                    OFFSET   0.000000  -0.050000   0.130000
                    CHANNELS 3 Xrotation Yrotation Zrotation
                    End Site
                    {
                        OFFSET  -0.010000   0.002000   0.060000
                    }
                }
            }
        }
    }
    JOINT pelvis_lowerback
    {
        OFFSET   0.000000   0.093605   0.000000
        CHANNELS 3 Xrotation Yrotation Zrotation
        JOINT lowerback_torso
        {
            OFFSET   0.000000   0.100000   0.000000
            CHANNELS 3 Xrotation Yrotation Zrotation
            JOINT torso_head
            {
                OFFSET   0.000000   0.282350   0.000000
                CHANNELS 3 Xrotation Yrotation Zrotation
                End Site
                {
                    OFFSET   0.000000   0.192650   0.000000
                }
            }
            JOINT lTorso_Clavicle
            {
                OFFSET   0.001000   0.157500   0.000000
                CHANNELS 3 Xrotation Yrotation Zrotation
                JOINT lShoulder
                {
                    OFFSET   0.117647   0.000000   0.000000
                    CHANNELS 3 Xrotation Yrotation Zrotation
                    JOINT lElbow
                    {
                        OFFSET   0.245000   0.000000   0.000000
                        CHANNELS 3 Xrotation Yrotation Zrotation
                        JOINT lWrist
                        {
                            OFFSET   0.240000   0.000000   0.000000
                            CHANNELS 3 Xrotation Yrotation Zrotation
                            End Site
                            {
                                OFFSET   0.116353  -0.002500   0.000000
                            }
                        }
                    }
                }
            }
            JOINT rTorso_Clavicle
            {
                OFFSET  -0.001000   0.157500   0.000000
                CHANNELS 3 Xrotation Yrotation Zrotation
                JOINT rShoulder
                {
                    OFFSET  -0.117647   0.000000   0.000000
                    CHANNELS 3 Xrotation Yrotation Zrotation
                    JOINT rElbow
                    {
                        OFFSET  -0.245000   0.000000   0.000000
                        CHANNELS 3 Xrotation Yrotation Zrotation
                        JOINT rWrist
                        {
                            OFFSET  -0.240000   0.000000   0.000000
                            CHANNELS 3 Xrotation Yrotation Zrotation
                            End Site
                            {
                                OFFSET  -0.116353  -0.002500   0.000000
                            }
                        }
                    }
                }
            }
        }
    }
}
MOTION
Frames: 7
Frame Time:   0.010000
  1.702267   0.861213  -3.353117  -0.532582   2.680777  -4.577590   1.661051  -0.242462   3.178753  43.797853  -2.579501  -1.644198  21.316187  -0.760406  -7.068588  -0.000002   0.000002  -0.000003 -22.033697   2.257720   7.739595  15.527063   0.102015   1.209248   4.477117   0.948277  -1.230608   0.000001  -0.000008  -0.000002   1.294843  -1.471502   1.540766   5.586174  -5.733383   6.181713   5.347702   5.083975  -2.747738  -0.890569  -7.371420 -12.693266  30.573383 -42.099458 -48.959365   1.330825 -25.037268   5.037442   5.736417  -9.495721  19.039713   0.245583  -0.046000  14.197177  34.443982  42.208796  40.055486  -0.725929  15.770688  -1.152348   2.647103   9.317795  -5.016062
  1.701024   0.862069  -3.344673  -0.631988   2.758081  -4.843965   0.229512  -0.387771   3.589204  45.954285  -2.511836  -1.817483  22.100784  -0.646558  -7.598433  -0.000001   0.000001  -0.000001 -21.310256   2.298588   8.089091  15.412308   0.010251   1.282337   4.007485   0.910514  -1.483631   0.000002  -0.000008  -0.000003   1.331774  -1.431476   1.603510   5.738693  -5.561416   6.432843   5.269936   4.880412  -2.715097  -0.870722  -7.310748 -12.553204  30.839187 -42.019772 -48.975662   1.354053 -25.250820   5.105257   6.128921  -9.482158  18.767802   0.244450   0.005651  14.251557  34.509923  42.309834  39.725553  -0.747088  15.987674  -1.289239   2.585952   9.326058  -5.039842
  1.699782   0.862925  -3.336228  -0.731040   2.835846  -5.110222  -1.200979  -0.543284   3.995905  48.110806  -2.450732  -1.993186  22.886385  -0.539980  -8.129777   0.000000   0.000001   0.000001 -20.587057   2.343862   8.438054  15.297671  -0.081659   1.355242   3.537696   0.874826  -1.736954   0.000003  -0.000009  -0.000004   1.368661  -1.391410   1.666227   5.890410  -5.388786   6.683439   5.192310   4.676806  -2.682743  -0.851026  -7.250027 -12.413182  31.104689 -41.940143 -48.992436   1.377603 -25.464346   5.173288   6.521471  -9.470433  18.495813   0.243268   0.057300  14.305938  34.576756  42.410588  39.394932  -0.767731  16.204708  -1.426196   2.524802   9.334345  -5.063614
  1.698650   0.863782  -3.327731  -0.847468   2.859204  -5.324109  -2.596473  -0.679411   4.325924  50.032582  -2.495157  -2.212401  23.114993  -0.475474  -8.350342   0.000001  -0.000001   0.000002 -19.844277   2.415785   8.753008  15.175975  -0.144436   1.414189   3.073577   0.858851  -1.987224   0.000003  -0.000010  -0.000004   1.408900  -1.340496   1.715167   6.049541  -5.172827   6.877596   5.102518   4.488501  -2.646180  -0.834516  -7.175489 -12.291509  31.342131 -41.795029 -49.022626   1.405502 -25.722597   5.262551   6.784682  -9.489795  18.267396   0.241321   0.126294  14.354043  34.598203  42.517086  39.091613  -0.788623  16.419532  -1.565166   2.463782   9.338166  -5.090582
  1.697737   0.864641  -3.319128  -0.999342   2.773177  -5.433597  -3.923629  -0.762729   4.507927  51.484043  -2.744637  -2.510834  22.228078  -0.487111  -7.947093   0.000003  -0.000003   0.000002 -19.062198   2.535926   8.999845  15.039970  -0.148750   1.445519   2.621105   0.880120  -2.230808   0.000002  -0.000010  -0.000003   1.455900  -1.267943   1.736555   6.224493  -4.871144   6.959115   4.988263   4.330811  -2.600940  -0.824227  -7.073387 -12.206491  31.523674 -41.518937 -49.079478   1.442227 -26.070290   5.394335   6.789015  -9.568276  18.126215   0.237881   0.229977  14.389600  34.527757  42.635695  38.843869  -0.810528  16.629890  -1.708091   2.403015   9.333034  -5.123961
  1.696824   0.865501  -3.310526  -1.151370   2.687441  -5.543305  -5.250542  -0.850239   4.687955  52.934506  -3.001586  -2.802910  21.341265  -0.504989  -7.544072   0.000005  -0.000005   0.000002 -18.280569   2.659422   9.245040  14.903967  -0.153140   1.476839   2.168725   0.903312  -2.474219   0.000002  -0.000009  -0.000003   1.502872  -1.195372   1.757883   6.398938  -4.569214   7.039673   4.874156   4.173031  -2.556023  -0.814093  -6.971269 -12.121511  31.704813 -41.242980 -49.137253   1.479954 -26.417906   5.526763   6.793154  -9.646767  17.985007   0.234377   0.333658  14.425164  34.457877  42.754529  38.595850  -0.831909  16.840300  -1.851089   2.342246   9.327938  -5.157345
  1.695911   0.866361  -3.301924  -1.303551   2.601996  -5.653233  -6.577206  -0.941894   4.865912  54.383999  -3.265834  -3.088450  20.454597  -0.529101  -7.141374   0.000007  -0.000007   0.000002 -17.499395   2.786246   9.488552  14.767966  -0.157603   1.508149   1.716445   0.928424  -2.717440   0.000001  -0.000009  -0.000002   1.549815  -1.122784   1.779151   6.572887  -4.267042   7.119277   4.760196   4.015163  -2.511431  -0.804114  -6.869137 -12.036568  31.885561 -40.967162 -49.195940   1.518695 -26.765442   5.659850   6.797097  -9.725268  17.843772   0.230808   0.437337  14.460734  34.388564  42.873583  38.347551  -0.852764  17.050760  -1.994166   2.281475   9.322876  -5.190734
